<?xml version="1.0" standalone="no"?>
<!DOCTYPE svg PUBLIC "-//W3C//DTD SVG 20010904//EN"
 "http://www.w3.org/TR/2001/REC-SVG-20010904/DTD/svg10.dtd">
<svg version="1.0" xmlns="http://www.w3.org/2000/svg"
 width="1600.000000pt" height="1000.000000pt" viewBox="0 0 1600.000000 1000.000000"
 preserveAspectRatio="xMidYMid meet">

<g transform="translate(0.000000,1000.000000) scale(0.100000,-0.100000)"
fill="#000000" stroke="none">
<path d="M4400 7614 c-224 -59 -379 -128 -567 -253 -207 -138 -383 -317 -505
-513 -65 -104 -144 -265 -135 -274 4 -4 29 12 56 34 58 50 96 55 111 17 5 -14
15 -25 22 -25 7 0 33 34 58 76 39 64 45 71 48 49 2 -14 -6 -38 -17 -54 -26
-36 -29 -112 -5 -136 16 -15 18 -15 35 2 10 10 24 41 30 68 7 28 29 70 49 95
19 25 46 72 59 105 13 33 37 79 53 103 30 45 35 68 17 74 -6 2 -2 15 10 30 18
22 27 26 55 21 20 -3 36 -1 40 6 4 6 22 11 41 11 37 0 55 14 92 72 13 22 59
74 102 116 109 108 104 105 134 91 l26 -12 -19 -25 c-11 -13 -20 -36 -20 -51
0 -17 -16 -43 -45 -75 -25 -26 -45 -52 -45 -57 0 -5 -9 -9 -19 -9 -11 0 -22
-9 -26 -20 -4 -11 -21 -23 -40 -29 -57 -16 -102 -67 -131 -150 -25 -71 -25
-75 -8 -88 29 -21 62 -15 90 17 32 36 60 46 80 29 11 -9 21 -9 39 -1 26 12 82
7 135 -13 45 -16 65 -8 126 49 100 94 114 106 124 106 5 0 10 5 10 10 0 16 62
50 92 50 39 0 42 15 8 41 -20 16 -30 33 -30 52 0 18 -5 27 -16 27 -8 0 -28 12
-44 28 -25 24 -70 50 -140 80 -23 10 -23 11 -4 11 11 1 28 9 36 19 20 23 23
105 4 121 -18 15 -93 4 -100 -15 -3 -8 -10 -14 -16 -14 -12 0 -2 53 12 58 12
5 10 22 -3 22 -6 0 -25 -9 -42 -21 -31 -20 -31 -20 3 10 25 22 42 29 58 26 29
-7 79 19 87 46 6 18 12 20 42 14 29 -5 35 -3 40 14 3 14 19 24 44 31 39 11 54
30 22 30 -10 -1 -61 -12 -113 -26z"/>
<path d="M5502 7544 c2 -9 34 -38 73 -64 l69 -48 2 -61 c1 -33 7 -68 14 -76
19 -23 -4 -18 -25 5 -40 44 -87 8 -57 -43 16 -27 16 -29 -1 -42 -18 -13 -18
-16 -1 -89 10 -42 22 -76 26 -76 4 0 8 -9 8 -20 0 -13 -9 -22 -25 -26 -28 -7
-31 -14 -13 -32 7 -7 8 -12 2 -12 -6 0 -19 9 -29 20 -39 43 -49 4 -14 -54 23
-39 17 -61 -13 -53 -13 4 -27 -3 -41 -20 -30 -35 -152 -113 -177 -113 -21 0
-27 -24 -10 -35 6 -4 -4 -17 -22 -30 -18 -14 -43 -31 -54 -40 -18 -13 -26 -14
-48 -4 -32 15 -34 29 -2 29 34 0 86 20 86 34 0 21 -23 36 -56 36 -18 0 -35 4
-38 9 -3 5 -23 11 -43 14 -21 2 -52 10 -68 17 -45 19 -116 5 -152 -28 -106
-97 -177 -155 -208 -168 -39 -16 -55 -45 -55 -99 0 -29 3 -33 34 -39 26 -5 40
-17 64 -56 27 -43 36 -50 62 -50 34 0 70 32 90 80 10 24 9 33 -4 52 -25 36
-19 60 28 107 53 52 77 52 41 -1 -33 -49 -32 -75 5 -96 51 -29 51 -60 -2 -86
-13 -7 -24 -22 -26 -37 -2 -21 -13 -28 -56 -43 -73 -25 -192 -9 -146 19 12 8
-20 77 -34 72 -6 -2 -18 -24 -26 -48 -9 -25 -21 -44 -27 -42 -6 2 -14 -1 -18
-6 -3 -6 -18 -11 -33 -11 -18 0 -40 -14 -73 -50 -43 -46 -51 -50 -92 -50 -58
0 -74 -17 -53 -59 41 -78 2 -107 -115 -87 l-46 8 -25 -44 c-23 -39 -33 -84
-29 -130 0 -9 21 -30 47 -47 34 -24 56 -31 91 -31 43 0 51 4 95 50 26 28 51
50 55 50 4 0 18 14 33 31 23 28 32 32 94 36 l69 4 46 -45 c25 -24 63 -51 84
-60 33 -13 37 -19 37 -50 0 -38 17 -57 31 -35 5 8 9 24 9 37 0 13 6 22 15 22
33 0 13 24 -85 98 -34 26 -38 40 -13 49 10 4 24 -2 37 -18 12 -14 40 -32 61
-41 36 -14 40 -19 37 -46 -3 -22 4 -38 26 -60 17 -17 33 -44 37 -60 7 -33 31
-44 76 -35 18 3 26 10 22 17 -4 6 -8 16 -8 21 -1 6 -7 22 -14 37 -20 40 -9 58
39 58 38 0 40 -2 40 -30 0 -17 4 -38 9 -48 5 -9 12 -26 16 -36 5 -18 13 -19
110 -13 l105 7 0 -38 c0 -20 -3 -47 -6 -59 -7 -26 -60 -53 -104 -53 -17 0 -39
-4 -49 -10 -13 -7 -48 -2 -119 17 -117 29 -145 26 -161 -18 -13 -36 -32 -34
-97 12 -23 15 -60 33 -83 38 -24 5 -44 11 -45 13 -1 1 -13 31 -26 66 -24 60
-26 62 -61 62 -20 0 -73 5 -117 11 -62 8 -94 8 -133 -1 -37 -9 -54 -9 -62 -1
-13 13 -54 15 -61 2 -4 -5 -31 -17 -62 -27 -45 -14 -57 -23 -68 -48 -15 -36
-43 -57 -100 -76 -22 -7 -57 -32 -79 -55 -33 -34 -45 -59 -65 -131 -13 -49
-26 -125 -29 -170 -4 -73 -2 -86 21 -132 15 -29 32 -52 40 -52 8 0 16 -16 19
-38 5 -28 22 -54 69 -103 62 -65 65 -67 143 -83 44 -10 96 -21 115 -26 19 -5
65 -6 102 -3 61 5 71 3 124 -26 32 -17 72 -31 91 -31 38 0 53 -22 35 -51 -15
-24 -15 -64 0 -92 6 -12 40 -57 75 -100 71 -88 77 -114 39 -165 -19 -27 -22
-40 -18 -84 3 -36 12 -61 27 -78 104 -115 131 -140 176 -165 56 -30 73 -30
263 -3 l80 11 73 73 c40 41 73 78 73 82 0 21 77 95 121 117 76 39 82 54 70
174 -10 92 -9 105 8 136 10 20 39 51 64 70 24 19 56 54 70 77 14 24 38 50 53
58 31 17 84 85 84 109 0 9 14 49 30 89 17 40 28 77 25 82 -12 20 -72 10 -116
-19 -49 -33 -104 -44 -104 -23 0 14 80 68 150 101 22 10 54 37 70 59 17 23 50
51 75 64 44 22 45 25 52 80 4 32 15 72 24 89 19 38 8 68 -38 101 -36 25 -26
42 19 33 37 -7 74 10 104 47 15 19 17 19 65 4 27 -10 54 -24 61 -33 8 -11 21
-14 42 -10 26 6 31 3 40 -25 6 -17 11 -38 11 -47 1 -9 9 -34 20 -56 11 -22 19
-47 20 -55 0 -23 56 -80 78 -80 11 0 26 -10 35 -22 l15 -23 12 30 c9 23 8 40
-2 75 -20 72 -15 231 10 335 31 123 46 168 60 173 19 6 43 -57 46 -127 2 -37
10 -80 18 -96 14 -26 15 -24 21 62 6 98 -6 317 -23 403 -58 302 -176 585 -316
761 -229 287 -404 431 -689 569 -150 72 -157 75 -153 54z"/>
<path d="M5464 7499 c-3 -6 0 -15 7 -20 16 -10 49 -12 49 -3 0 8 -32 33 -42
34 -4 0 -10 -5 -14 -11z"/>
<path d="M5443 7273 c-41 -5 -43 -27 -4 -43 25 -10 33 -9 55 7 14 10 26 24 26
31 0 12 -13 13 -77 5z"/>
<path d="M5349 7037 c-40 -32 -62 -124 -39 -168 13 -23 80 -28 80 -5 0 8 -7
16 -15 20 -22 8 -19 69 5 108 11 18 20 39 20 46 0 15 -30 15 -51 -1z"/>
<path d="M4793 7013 c-26 -10 -12 -49 29 -81 20 -16 58 0 58 23 0 9 9 15 21
15 20 0 48 25 49 43 0 10 -48 9 -70 -3 -13 -7 -21 -7 -25 0 -6 10 -41 12 -62
3z"/>
<path d="M4194 6746 c-8 -21 13 -64 38 -77 13 -7 25 -5 40 6 13 8 30 15 40 15
27 0 32 20 10 42 -28 29 -119 38 -128 14z"/>
<path d="M7550 6662 c0 -46 4 -53 122 -200 l122 -152 276 0 276 0 78 85 78 85
-92 115 -92 115 -384 0 -384 0 0 -48z"/>
<path d="M4389 6464 c-10 -12 -10 -22 -2 -44 14 -37 6 -75 -29 -131 -32 -52
-34 -62 -15 -78 19 -15 141 28 145 52 2 9 -6 29 -18 44 -17 22 -21 40 -20 88
1 33 1 66 1 73 -1 17 -46 15 -62 -4z"/>
<path d="M4281 6370 c-66 -65 -43 -122 26 -62 37 32 48 62 30 86 -12 16 -16
15 -56 -24z"/>
<path d="M8434 6256 c-147 -129 -136 -106 -150 -291 l-6 -80 118 -152 119
-153 46 0 46 0 42 303 c24 166 45 311 47 322 3 14 -14 42 -56 90 -34 39 -64
71 -68 73 -4 1 -66 -49 -138 -112z"/>
<path d="M4600 5930 c0 -11 5 -20 10 -20 6 0 10 9 10 20 0 11 -4 20 -10 20 -5
0 -10 -9 -10 -20z"/>
<path d="M4590 5885 c-13 -16 -6 -47 14 -64 20 -17 44 43 26 64 -16 19 -24 19
-40 0z"/>
<path d="M4683 5783 c-3 -8 -4 -15 -2 -16 64 -35 67 -36 85 -16 13 15 14 22 5
33 -15 18 -81 17 -88 -1z"/>
<path d="M5037 5704 c-11 -11 3 -24 25 -24 17 0 18 2 8 15 -13 16 -23 19 -33
9z"/>
<path d="M3046 5620 c13 -158 78 -386 160 -560 42 -88 163 -282 184 -295 9 -6
-6 38 -43 125 -5 14 -13 53 -17 86 -4 38 -16 74 -29 92 -11 17 -21 38 -21 47
0 9 -14 38 -31 63 -17 25 -33 62 -36 81 -3 20 -12 45 -19 56 -8 11 -14 26 -14
35 0 8 -11 31 -23 50 -21 30 -95 208 -111 265 -3 11 -3 -9 0 -45z"/>
<path d="M7533 5554 c-89 -82 -93 -88 -93 -127 0 -36 9 -53 58 -114 l57 -73
351 0 351 0 81 89 c66 72 83 96 88 131 7 41 6 42 -62 111 l-68 69 -336 0 -335
0 -92 -86z"/>
<path d="M7265 5288 c-3 -13 -25 -159 -50 -326 l-46 -302 67 -75 c41 -45 72
-71 79 -67 7 4 65 57 129 117 l116 111 17 126 16 126 -124 155 c-120 150 -125
156 -161 156 -31 1 -39 -3 -43 -21z"/>
<path d="M7447 4502 c-42 -42 -77 -81 -77 -85 0 -4 39 -57 87 -117 l86 -110
384 0 383 0 0 46 c0 43 -6 52 -121 195 l-121 149 -272 0 -271 0 -78 -78z"/>
<path d="M5727 4489 c-20 -23 -37 -45 -37 -48 0 -3 -13 -12 -29 -19 -17 -7
-46 -38 -66 -68 -20 -30 -47 -62 -61 -70 -35 -24 -30 -34 19 -34 67 0 108 16
165 66 64 56 79 83 83 154 4 49 2 55 -16 58 -13 2 -33 -12 -58 -39z"/>
<path d="M3171 3476 l-43 -44 37 -41 37 -41 231 0 231 0 43 42 43 42 -42 43
-42 43 -226 0 -226 0 -43 -44z"/>
<path d="M4440 3435 l85 -85 185 0 185 0 85 85 85 85 -355 0 -355 0 85 -85z"/>
<path d="M5750 3435 l85 -85 171 0 172 0 35 43 36 44 -42 41 -43 42 -249 0
-250 0 85 -85z"/>
<path d="M9132 3477 l-42 -43 43 -42 43 -42 185 0 184 0 85 85 85 85 -271 0
-270 0 -42 -43z"/>
<path d="M10400 3435 l85 -85 185 0 185 0 85 85 85 85 -355 0 -355 0 85 -85z"/>
<path d="M11750 3475 l-44 -45 39 -40 39 -40 230 0 230 0 43 42 43 42 -42 43
-42 43 -226 0 -226 0 -44 -45z"/>
<path d="M6930 3279 l0 -235 33 -32 33 -32 52 53 52 53 0 130 0 129 -85 85
-85 85 0 -236z"/>
<path d="M7593 3428 l-83 -83 0 -131 0 -130 53 -52 53 -52 32 33 32 33 -2 232
-3 232 -82 -82z"/>
<path d="M8323 3428 l-83 -83 0 -141 0 -140 53 -52 53 -52 32 33 32 33 -2 242
-3 242 -82 -82z"/>
<path d="M4320 3254 l0 -230 33 -32 34 -33 51 55 52 55 0 123 0 123 -85 85
-85 85 0 -231z"/>
<path d="M10270 3261 l0 -224 34 -37 34 -38 56 57 56 57 0 114 0 115 -90 90
-90 90 0 -224z"/>
<path d="M5630 3249 l0 -225 30 -29 30 -29 55 54 55 54 -1 121 -2 120 -83 79
-84 80 0 -225z"/>
<path d="M3047 3352 l-37 -38 0 -146 c0 -144 0 -147 26 -178 l27 -31 58 57 59
58 0 115 0 115 -42 43 c-23 24 -45 43 -48 43 -3 0 -23 -17 -43 -38z"/>
<path d="M6242 3347 l-42 -43 0 -115 0 -115 55 -54 55 -54 30 29 30 29 0 146
0 146 -38 37 c-21 20 -40 37 -43 37 -3 0 -24 -19 -47 -43z"/>
<path d="M9007 3352 l-37 -38 0 -145 0 -145 34 -33 33 -32 52 56 51 57 0 116
0 116 -42 43 c-23 24 -45 43 -48 43 -3 0 -23 -17 -43 -38z"/>
<path d="M11622 3347 l-42 -43 0 -140 0 -140 33 -32 33 -32 52 53 52 53 0 125
0 125 -38 37 c-21 20 -40 37 -43 37 -3 0 -24 -19 -47 -43z"/>
<path d="M3145 2970 l-39 -40 44 -45 44 -45 185 0 185 0 43 42 43 42 -42 43
-42 43 -191 0 -191 0 -39 -40z"/>
<path d="M4462 2967 l-42 -43 43 -42 43 -42 189 0 189 0 43 42 43 42 -42 43
-42 43 -191 0 -191 0 -42 -43z"/>
<path d="M5772 2967 l-42 -43 43 -42 43 -42 185 0 185 0 44 45 44 45 -39 40
-39 40 -191 0 -191 0 -42 -43z"/>
<path d="M10422 2967 l-42 -43 43 -42 43 -42 184 0 184 0 43 42 43 42 -42 43
-42 43 -186 0 -186 0 -42 -43z"/>
<path d="M11722 2967 l-42 -43 43 -42 43 -42 189 0 189 0 43 42 43 42 -42 43
-42 43 -191 0 -191 0 -42 -43z"/>
<path d="M6962 2877 l-32 -33 0 -215 0 -215 43 -42 43 -42 42 43 42 43 0 195
0 195 -53 52 -53 52 -32 -33z"/>
<path d="M7542 2892 l-62 -14 -155 -166 -155 -167 0 -62 0 -63 59 0 60 0 155
165 c166 177 173 190 164 285 l-3 35 -63 -13z"/>
<path d="M3632 2837 l-52 -53 0 -120 0 -120 45 -44 45 -44 40 39 40 39 0 146
0 146 -33 32 -33 32 -52 -53z"/>
<path d="M4352 2857 l-32 -33 0 -229 0 -230 85 85 85 85 0 125 0 126 -53 52
-53 52 -32 -33z"/>
<path d="M8292 2837 l-52 -53 0 -140 0 -139 85 -85 85 -85 0 246 0 245 -33 32
-33 32 -52 -53z"/>
<path d="M9002 2857 l-32 -33 0 -140 0 -140 43 -42 43 -42 42 43 42 43 0 120
0 120 -53 52 -53 52 -32 -33z"/>
<path d="M12212 2837 l-52 -53 0 -125 0 -125 40 -39 40 -39 45 44 45 44 0 141
0 141 -33 32 -33 32 -52 -53z"/>
<path d="M5657 2852 l-27 -28 0 -239 0 -240 85 85 85 85 0 130 0 131 -53 52
c-29 29 -55 52 -58 52 -3 0 -17 -13 -32 -28z"/>
<path d="M10302 2847 l-32 -33 0 -224 0 -225 90 90 90 90 0 115 0 116 -53 52
c-29 29 -55 52 -58 52 -3 0 -19 -15 -37 -33z"/>
<path d="M6130 2728 c-6 -24 -15 -57 -19 -74 -7 -26 0 -44 59 -145 l68 -115
107 -27 c59 -16 109 -26 111 -24 2 2 -49 94 -113 205 -94 161 -122 202 -143
207 -14 3 -33 8 -42 11 -13 4 -19 -5 -28 -38z"/>
<path d="M3045 2460 l-39 -40 44 -45 44 -45 225 0 225 0 43 42 43 42 -42 43
-42 43 -231 0 -231 0 -39 -40z"/>
<path d="M4440 2415 l-85 -85 355 0 355 0 -85 85 -85 85 -185 0 -185 0 -85
-85z"/>
<path d="M9135 2460 l-39 -40 44 -45 44 -45 265 0 266 0 -85 85 -85 85 -185 0
-186 0 -39 -40z"/>
<path d="M10390 2415 l-85 -85 360 0 360 0 -85 85 -85 85 -190 0 -190 0 -85
-85z"/>
<path d="M11625 2460 l-39 -40 44 -45 44 -45 221 0 221 0 44 45 44 45 -39 40
-39 40 -231 0 -231 0 -39 -40z"/>
</g>
</svg>
